<svg width="33" height="33" viewBox="0 0 33 33" fill="none" xmlns="http://www.w3.org/2000/svg">
    <circle cx="16.5" cy="16.5" r="15" fill="black" stroke="#E9761B" stroke-width="3"/>
    <path d="M13.968 18.568C13.968 18.088 14.04 17.656 14.184 17.272C14.344 16.888 14.536 16.544 14.76 16.24C15 15.936 15.248 15.664 15.504 15.424C15.776 15.168 16.024 14.928 16.248 14.704C16.488 14.48 16.68 14.256 16.824 14.032C16.984 13.808 17.064 13.576 17.064 13.336C17.064 12.968 16.904 12.688 16.584 12.496C16.28 12.304 15.904 12.208 15.456 12.208C14.944 12.208 14.464 12.352 14.016 12.64C13.568 12.928 13.216 13.328 12.96 13.84L8.688 11.704C9.296 10.552 10.216 9.616 11.448 8.896C12.68 8.176 14.256 7.816 16.176 7.816C17.44 7.816 18.56 7.992 19.536 8.344C20.528 8.68 21.312 9.192 21.888 9.88C22.464 10.552 22.752 11.392 22.752 12.4C22.752 13.008 22.656 13.544 22.464 14.008C22.288 14.472 22.048 14.88 21.744 15.232C21.456 15.568 21.152 15.88 20.832 16.168C20.512 16.456 20.2 16.728 19.896 16.984C19.608 17.224 19.368 17.472 19.176 17.728C19 17.984 18.912 18.264 18.912 18.568H13.968ZM16.44 25.24C15.512 25.24 14.752 24.96 14.16 24.4C13.568 23.824 13.272 23.144 13.272 22.36C13.272 21.56 13.568 20.888 14.16 20.344C14.752 19.8 15.512 19.528 16.44 19.528C17.384 19.528 18.144 19.8 18.72 20.344C19.312 20.888 19.608 21.56 19.608 22.36C19.608 23.144 19.312 23.824 18.72 24.4C18.144 24.96 17.384 25.24 16.44 25.24Z"
          fill="white"/>
</svg>
