<svg width="30" height="19" viewBox="0 0 30 19" fill="none" xmlns="http://www.w3.org/2000/svg">
    <mask id="mask0_10_30" style="mask-type:alpha" maskUnits="userSpaceOnUse" x="0" y="0" width="30" height="19">
        <rect width="30" height="19" rx="9.5" fill="#D9D9D9"/>
    </mask>
    <g mask="url(#mask0_10_30)">
        <path d="M-4 0V19H34V0H-4Z" fill="#012169"/>
        <path d="M-4 0L34 19ZM34 0L-4 19Z" fill="black"/>
        <path d="M-4 0L34 19M34 0L-4 19" stroke="white" stroke-width="5"/>
        <path d="M-4 0L34 19ZM34 0L-4 19Z" fill="black"/>
        <path d="M-4 0L34 19M34 0L-4 19" stroke="#C8102E" stroke-width="3"/>
        <path d="M15 0V19ZM-4 9.5H34Z" fill="black"/>
        <path d="M15 0V19M-4 9.5H34" stroke="white" stroke-width="5"/>
        <path d="M15 0V19ZM-4 9.5H34Z" fill="black"/>
        <path d="M15 0V19M-4 9.5H34" stroke="#C8102E" stroke-width="3"/>
    </g>
</svg>
