<svg width="73" height="79" viewBox="0 0 73 79" fill="none" xmlns="http://www.w3.org/2000/svg">
<path d="M4.23518 49.4398H6.37898L10.6299 61.3774H8.43367L7.49019 58.7165H3.04011L2.09662 61.3774H0L4.23518 49.4398ZM6.89265 56.9738L5.26252 51.9807L3.62192 56.9738H6.89265Z" fill="#F16522"/>
<path d="M12.0135 52.3355H13.9162V56.0712L17.3599 52.3355H19.5718L16.1596 55.9877L20.096 61.3774H17.8159L14.9383 57.386L13.89 58.4608V61.3774H11.9873L12.0135 52.3355Z" fill="#F16522"/>
<path d="M21.8677 49.4398H26.1658C26.8199 49.4303 27.4718 49.5183 28.0999 49.7007C28.6238 49.8504 29.1109 50.1062 29.5308 50.452C29.9015 50.7662 30.1925 51.1631 30.38 51.6103C30.5726 52.0841 30.6688 52.5914 30.663 53.1025C30.6818 53.8186 30.4886 54.5244 30.1074 55.1321C29.7007 55.729 29.1158 56.1835 28.4354 56.4312L31.0037 61.3774H28.7603L26.4383 56.786H23.9066V61.3565H21.8677V49.4398ZM26.1658 55.0643C26.8206 55.1175 27.4725 54.932 28.0003 54.5425C28.1969 54.3603 28.3509 54.1374 28.4514 53.8895C28.5519 53.6416 28.5966 53.3747 28.5821 53.1077C28.5941 52.8449 28.5483 52.5826 28.4478 52.3393C28.3473 52.096 28.1945 51.8774 28.0003 51.699C27.4736 51.3073 26.8208 51.1216 26.1658 51.1773H23.9066V55.0643H26.1658Z" fill="#F16522"/>
<path d="M35.8209 61.513C35.3071 61.5421 34.7929 61.4643 34.311 61.2846C33.8291 61.105 33.3901 60.8274 33.0219 60.4695C32.6526 60.0512 32.3698 59.5643 32.1899 59.037C32.0101 58.5096 31.9365 57.9521 31.9736 57.3964V56.1808C31.9656 55.6182 32.056 55.0585 32.2409 54.5268C32.405 54.0626 32.6678 53.639 33.0114 53.2851C33.3545 52.9377 33.7694 52.6689 34.2274 52.4972C35.2532 52.1356 36.3728 52.1356 37.3986 52.4972C37.8595 52.6689 38.2766 52.9399 38.62 53.2907C38.9635 53.6416 39.2247 54.0637 39.3851 54.5268C39.57 55.0585 39.6604 55.6182 39.6524 56.1808V57.3964C39.6895 57.9521 39.6159 58.5096 39.436 59.037C39.2562 59.5643 38.9734 60.0512 38.6041 60.4695C38.2378 60.8254 37.8013 61.1018 37.3223 61.2814C36.8432 61.461 36.332 61.5399 35.8209 61.513ZM35.8209 59.8591C36.0827 59.8723 36.3443 59.8272 36.5864 59.727C36.8285 59.6268 37.0451 59.4741 37.2204 59.2799C37.6134 58.7237 37.7988 58.0482 37.7445 57.3704V56.1547C37.789 55.5312 37.6026 54.9132 37.2204 54.4173C36.8459 54.0561 36.3449 53.8542 35.8235 53.8542C35.3021 53.8542 34.8011 54.0561 34.4266 54.4173C34.0444 54.9132 33.8579 55.5312 33.9024 56.1547V57.3704C33.8482 58.0482 34.0336 58.7237 34.4266 59.2799C34.6008 59.474 34.8165 59.6267 35.0577 59.7269C35.299 59.8271 35.5598 59.8723 35.8209 59.8591Z" fill="#F16522"/>
<path d="M41.5864 52.3355H43.3319V53.786C43.5452 53.3244 43.8849 52.932 44.312 52.6538C44.7438 52.354 45.2585 52.1954 45.7849 52.1999C46.3175 52.1878 46.8433 52.3214 47.305 52.586C47.7477 52.8504 48.096 53.2464 48.3009 53.7181C48.5678 53.2616 48.9442 52.878 49.3963 52.6016C49.8476 52.3332 50.3646 52.1942 50.8902 52.1999C51.2708 52.188 51.6495 52.2589 51.9998 52.4076C52.3501 52.5563 52.6637 52.7792 52.9187 53.0607C53.4948 53.804 53.7731 54.7336 53.6997 55.6695V61.4087H51.7603V55.899C51.8083 55.3461 51.664 54.7935 51.3515 54.3338C51.2249 54.1794 51.0648 54.0555 50.8832 53.9715C50.7017 53.8875 50.5033 53.8454 50.3031 53.8486C50.0769 53.8493 49.8535 53.8986 49.6481 53.9932C49.4428 54.0877 49.2604 54.2253 49.1133 54.3964C48.7514 54.8097 48.5636 55.3461 48.5891 55.8938V61.3721H46.6707V55.899C46.7188 55.3446 46.5704 54.7909 46.2514 54.3338C46.1203 54.1779 45.9556 54.0534 45.7696 53.9694C45.5837 53.8854 45.3811 53.8441 45.1769 53.8486C44.952 53.8484 44.7298 53.8973 44.526 53.992C44.3223 54.0867 44.1418 54.2247 43.9975 54.3964C43.6451 54.8137 43.4668 55.3496 43.4996 55.8938V61.3721H41.5864V52.3355Z" fill="#F16522"/>
<path d="M58.0294 61.4817C57.6705 61.5171 57.3082 61.4724 56.9688 61.3509C56.6294 61.2294 56.3215 61.0341 56.0675 60.7792C55.8134 60.5243 55.6197 60.2163 55.5003 59.8776C55.3809 59.5388 55.3388 59.1778 55.3772 58.8208C55.353 58.4453 55.4108 58.069 55.5465 57.7177C55.6822 57.3665 55.8927 57.0487 56.1634 56.786C56.8525 56.2592 57.7138 56.0063 58.5798 56.0764H60.582V55.393C60.6207 54.9624 60.4933 54.5333 60.2256 54.1929C60.0653 54.0573 59.8792 53.9551 59.6784 53.8924C59.4776 53.8296 59.2662 53.8076 59.0567 53.8277C58.6588 53.7879 58.2596 53.8895 57.9298 54.1147C57.8246 54.2049 57.7385 54.315 57.6764 54.4386C57.6143 54.5622 57.5775 54.6968 57.5681 54.8347H55.8227C55.8265 54.4633 55.8975 54.0957 56.0324 53.7495C56.1613 53.4303 56.3643 53.146 56.6247 52.9199C56.9192 52.6799 57.2599 52.5023 57.6258 52.3981C58.103 52.2636 58.5976 52.2004 59.0934 52.2103C60.2675 52.2103 61.1202 52.4694 61.6513 52.9877C61.9417 53.3147 62.1624 53.6969 62.3003 54.1112C62.4381 54.5255 62.4902 54.9633 62.4533 55.3982V61.3774H60.755V59.9165C60.6479 60.1226 60.5216 60.3183 60.3776 60.5008C60.2286 60.6986 60.0521 60.8743 59.8535 61.0226C59.6201 61.178 59.3636 61.296 59.0934 61.3722C58.7455 61.457 58.3875 61.4939 58.0294 61.4817ZM58.6112 59.9165C58.876 59.9309 59.141 59.8922 59.3905 59.8026C59.6399 59.7129 59.8687 59.5742 60.0631 59.3947C60.2461 59.1934 60.3867 58.9576 60.4767 58.7014C60.5668 58.4451 60.6043 58.1735 60.5873 57.9025V57.4904H58.737C58.3195 57.4469 57.9007 57.5605 57.5629 57.8086C57.4461 57.9321 57.3564 58.0785 57.2995 58.2384C57.2427 58.3983 57.2199 58.5682 57.2327 58.7373C57.2244 58.8967 57.2505 59.0561 57.3092 59.2046C57.368 59.3531 57.4581 59.4873 57.5734 59.5982C57.8675 59.8292 58.2375 59.9427 58.6112 59.9165Z" fill="#F16522"/>
<path d="M64.6493 52.3355H66.3947V53.786C66.6108 53.3214 66.9565 52.9284 67.3906 52.6538C67.9778 52.3024 68.6641 52.1516 69.3453 52.2241C70.0265 52.2966 70.6653 52.5885 71.1645 53.0555C71.7541 53.7924 72.0391 54.7254 71.9613 55.6643V61.4035H70.0271V55.899C70.0761 55.3422 69.9217 54.7864 69.5921 54.3338C69.4369 54.1713 69.2485 54.0439 69.0396 53.9602C68.8308 53.8765 68.6062 53.8384 68.3813 53.8486C68.1378 53.8418 67.8957 53.8872 67.6714 53.9817C67.4472 54.0762 67.2459 54.2176 67.0814 54.3964C66.7156 54.8075 66.5272 55.3455 66.5572 55.8938V61.3721H64.6493V52.3355Z" fill="#F16522"/>
<path d="M26.9739 66.1774H29.0286V78.115H26.9739V66.1774Z" fill="#F16522"/>
<path d="M31.8013 69.0731H33.5519V70.5236C33.7636 70.0577 34.108 69.664 34.5426 69.3914C35.1303 69.0388 35.8177 68.8872 36.5 68.9597C37.1824 69.0323 37.8221 69.3249 38.3218 69.7931C38.909 70.5312 39.1936 71.4633 39.1185 72.4019V78.115H37.1843V72.6366C37.2343 72.0789 37.0777 71.5222 36.744 71.0714C36.5912 70.9074 36.404 70.7789 36.1956 70.695C35.9873 70.6111 35.7629 70.574 35.5385 70.5862C35.2962 70.576 35.0545 70.6172 34.8295 70.7072C34.6044 70.7971 34.4012 70.9338 34.2333 71.1079C33.8675 71.519 33.6792 72.057 33.7092 72.6053V78.0837H31.7908L31.8013 69.0731Z" fill="#F16522"/>
<path d="M40.109 69.0731H42.2371L44.6168 75.8297L46.7763 69.0731H48.8152L45.6284 78.115H43.6418L40.109 69.0731Z" fill="#F16522"/>
<path d="M53.1816 78.2506C52.6549 78.2579 52.1317 78.164 51.6406 77.9741C51.1924 77.7993 50.7894 77.5265 50.4613 77.1758C50.1163 76.8019 49.8554 76.359 49.696 75.8767C49.5101 75.304 49.4215 74.7045 49.4339 74.1028V72.8923C49.3618 71.8248 49.7138 70.7718 50.4141 69.9601C51.1502 69.3012 52.1052 68.9367 53.0952 68.9367C54.0851 68.9367 55.0401 69.3012 55.7762 69.9601C56.4841 70.7822 56.8382 71.8488 56.7616 72.9288V74.1393H51.3681C51.3113 74.83 51.4864 75.52 51.866 76.101C52.028 76.2882 52.2306 76.4361 52.4586 76.5338C52.6865 76.6314 52.9338 76.6761 53.1816 76.6645C53.3706 76.6791 53.5606 76.6561 53.7405 76.597C53.9205 76.5379 54.0868 76.4438 54.23 76.3202C54.4564 76.1124 54.6106 75.8383 54.6703 75.5376H56.5887C56.4719 76.3088 56.0859 77.0145 55.4984 77.5306C54.8389 78.0412 54.0159 78.297 53.1816 78.2506ZM53.1345 70.5236C52.8981 70.5101 52.6615 70.5473 52.4408 70.6329C52.2201 70.7184 52.0205 70.8502 51.8555 71.0192C51.5025 71.5082 51.3303 72.1036 51.3681 72.7045H54.9585C54.9907 72.0986 54.8049 71.5011 54.4344 71.0192C54.2644 70.851 54.0609 70.72 53.8371 70.6346C53.6132 70.5492 53.3739 70.5114 53.1345 70.5236Z" fill="#F16522"/>
<path d="M61.8356 78.2506C61.3039 78.2609 60.7736 78.1905 60.2631 78.0419C59.8662 77.9255 59.4947 77.7361 59.1677 77.4837C58.8859 77.2538 58.6631 76.9605 58.5177 76.628C58.3715 76.2819 58.2881 75.9127 58.2714 75.5375H60.2003C60.2313 75.8512 60.3768 76.1426 60.6091 76.3567C60.9783 76.6006 61.421 76.7094 61.8618 76.6645C62.3237 76.7076 62.7875 76.6054 63.188 76.3723C63.3051 76.2855 63.3995 76.1719 63.4634 76.0412C63.5272 75.9104 63.5586 75.7663 63.5549 75.621C63.5552 75.4833 63.5358 75.3463 63.4972 75.2141C63.4484 75.0776 63.3587 74.9592 63.2404 74.8749C63.0652 74.7473 62.8705 74.6486 62.6638 74.5827C62.3353 74.4724 61.9989 74.387 61.6574 74.3271C60.7976 74.2056 59.9786 73.8838 59.2673 73.388C59.0083 73.1697 58.8043 72.8942 58.6714 72.5835C58.5385 72.2728 58.4805 71.9354 58.502 71.5984C58.4902 71.238 58.5578 70.8794 58.7 70.5477C58.8421 70.216 59.0554 69.9193 59.3249 69.6783C60.0505 69.1297 60.9535 68.866 61.8618 68.9375C62.7558 68.8643 63.6447 69.1288 64.3516 69.6783C64.6167 69.9251 64.8297 70.222 64.9782 70.5517C65.1267 70.8813 65.2077 71.2372 65.2164 71.5984H63.2928C63.2642 71.2992 63.1327 71.0191 62.9206 70.8053C62.606 70.5819 62.2198 70.4816 61.8356 70.5236C61.434 70.485 61.0308 70.5784 60.6877 70.7897C60.5788 70.879 60.4926 70.9926 60.4361 71.1214C60.3796 71.2501 60.3545 71.3903 60.3627 71.5305C60.3605 71.6607 60.3837 71.79 60.4309 71.9114C60.4834 72.043 60.5725 72.157 60.6877 72.2401C60.848 72.3533 61.0248 72.4413 61.2119 72.501C61.5051 72.5962 61.8046 72.6712 62.1082 72.7253C62.6254 72.8062 63.1342 72.9337 63.6282 73.1062C63.9963 73.2364 64.34 73.4269 64.6451 73.6697C64.9007 73.8821 65.0989 74.1547 65.2217 74.4627C65.3449 74.8076 65.4053 75.1716 65.3999 75.5375C65.4108 75.9064 65.3388 76.273 65.1891 76.6106C65.0395 76.9481 64.816 77.2482 64.535 77.4889C63.9689 77.9967 63.0691 78.2506 61.8356 78.2506Z" fill="#F16522"/>
<path d="M70.809 78.115C70.3445 78.1247 69.8808 78.0721 69.4304 77.9585C69.0837 77.879 68.7669 77.7029 68.5171 77.4506C68.2674 77.1983 68.0951 76.8804 68.0205 76.5341C67.9071 76.0804 67.8542 75.6137 67.8632 75.1463V70.6958H66.6157V69.0731H67.8632V67.0279H69.8026V69.0731H71.6162V70.6958H69.8026V75.1463C69.7593 75.5234 69.8502 75.9037 70.0594 76.221C70.1817 76.3241 70.3237 76.4014 70.4769 76.448C70.6301 76.4947 70.7913 76.5097 70.9505 76.4924H71.6162V78.115H70.809Z" fill="#F16522"/>
<path d="M50.2221 0.511367C45.1376 0.76654 40.3139 2.78593 36.6207 6.2054C32.9275 9.62487 30.6079 14.2194 30.0801 19.1605C29.9527 20.4173 29.9399 21.6827 30.0418 22.9417C30.1233 24.0067 30.6116 25.003 31.4099 25.7335C32.2082 26.464 33.2584 26.8755 34.3528 26.8865C38.7901 26.8946 43.1174 25.5389 46.7206 23.0118L51.707 19.511C53.0335 18.5816 54.2454 17.5057 55.3186 16.3047L55.9078 15.6457C58.868 12.4627 57.2634 9.3919 57.2634 9.3919L57.546 9.55081C58.3352 9.99244 59.2379 10.2034 60.1466 10.1587C61.0553 10.114 61.9316 9.81534 62.6713 9.29842L64.616 7.93362L63.2173 9.83126C62.6854 10.5521 62.378 11.4074 62.3321 12.2946C62.2862 13.1818 62.5038 14.063 62.9587 14.8324L63.1215 15.1082C62.2671 14.6271 61.2798 14.419 60.298 14.5129C59.3162 14.6067 58.3891 14.9979 57.6466 15.6316L56.0323 17.0058C54.8055 18.0538 53.7047 19.2346 52.7512 20.5253L49.1635 25.3909C46.5264 28.97 45.1362 33.2804 45.1974 37.6881C45.2088 38.7524 45.6231 39.775 46.3605 40.5593C47.098 41.3436 48.1065 41.8342 49.1922 41.9367C52.0961 42.1982 55.024 41.8745 57.7943 40.9858C60.5646 40.0971 63.1182 38.6624 65.2966 36.7706C67.4749 34.8788 69.2316 32.5703 70.4576 29.9885C71.6836 27.4066 72.3527 24.6065 72.4234 21.7618C72.4942 18.9171 71.965 16.0885 70.8687 13.4517C69.7725 10.8149 68.1326 8.42601 66.0508 6.43338C63.969 4.44074 61.4897 2.88685 58.7668 1.86813C56.0439 0.849411 53.1355 0.387603 50.2221 0.511367Z" fill="#F16522"/>
</svg>
