<svg width="58" height="59" viewBox="0 0 58 59" fill="none" xmlns="http://www.w3.org/2000/svg">
    <path d="M29 46.9143C38.6176 46.9143 46.4143 39.1176 46.4143 29.5C46.4143 19.8824 38.6176 12.0857 29 12.0857C19.3823 12.0857 11.5857 19.8824 11.5857 29.5C11.5857 39.1176 19.3823 46.9143 29 46.9143Z"
          fill="black" stroke="#E9761B" stroke-width="5" stroke-miterlimit="10"/>
    <path d="M55.4999 29.6257C55.4999 36.6206 52.7263 43.329 47.7893 48.2751C42.8522 53.2213 36.1562 56 29.1742 56C23.5347 56.0085 18.0427 54.1955 13.5129 50.8299C15.6909 44.6738 20.2562 36.3388 29.7106 30.9427C39.1027 25.5827 48.544 25.8481 55.3985 27.3093C55.4682 28.0716 55.502 28.8437 55.4999 29.6257Z"
          fill="black" stroke="#E9761B" stroke-width="5" stroke-miterlimit="10"/>
    <path d="M55.4999 29.5C55.4999 36.5282 52.708 43.2686 47.7382 48.2383C42.7685 53.208 36.0282 56 29 56C23.3231 56.0086 17.7947 54.187 13.235 50.8053C9.90312 48.3419 7.19604 45.1308 5.33154 41.4304C3.46704 37.73 2.49718 33.6436 2.50001 29.5C2.50001 22.4718 5.29195 15.7314 10.2617 10.7617C15.2314 5.79195 21.9717 3 29 3C35.6253 2.99991 42.0104 5.48163 46.8967 9.95601C51.783 14.4304 54.816 20.5728 55.3979 27.1726C55.4681 27.9385 55.5021 28.7143 55.4999 29.5Z"
          stroke="white" stroke-width="5" stroke-miterlimit="10"/>
</svg>
