<svg width="26" height="26" viewBox="0 0 26 26" fill="none" xmlns="http://www.w3.org/2000/svg">
<circle cx="13" cy="13" r="13" transform="rotate(-90 13 13)" fill="#1E1E1E"/>
<path d="M12.9999 2.22857C11.5854 2.22857 10.1847 2.50718 8.8779 3.04849C7.57105 3.58981 6.38361 4.38323 5.38339 5.38345C4.38317 6.38366 3.58976 7.5711 3.04844 8.87795C2.50713 10.1848 2.22852 11.5855 2.22852 13C2.22852 14.4145 2.50713 15.8152 3.04844 17.122C3.58976 18.4289 4.38317 19.6163 5.38339 20.6165C6.38361 21.6168 7.57105 22.4102 8.8779 22.9515C10.1847 23.4928 11.5854 23.7714 12.9999 23.7714L12.9999 13L12.9999 2.22857Z" fill="#B5FCF8"/>
</svg>
