<svg width="40" height="40" viewBox="0 0 40 40" fill="none" xmlns="http://www.w3.org/2000/svg">
<g clip-path="url(#clip0_680_923)">
<path d="M19.212 13.8714C18.8673 14.4635 18.3945 14.9712 17.8282 15.3573C17.2618 15.7434 16.6163 15.9982 15.9387 16.1031C15.4813 16.1712 15.0347 16.2987 14.6104 16.4822C13.5559 16.9307 12.6721 17.7034 12.0874 18.6881C12.0357 18.77 11.9882 18.8518 11.9408 18.938C11.8934 19.0242 11.8675 19.0845 11.8373 19.1534C11.4041 20.0412 11.2221 21.0305 11.3111 22.0142C11.3718 22.7361 11.5787 23.4383 11.9192 24.0779C11.1614 23.1314 10.0586 22.524 8.85289 22.389C8.16726 22.3106 7.47275 22.3859 6.81995 22.6095C6.16714 22.8331 5.57247 23.1993 5.07925 23.6815C4.91106 23.8496 4.74286 24.0176 4.57898 24.1899C4.44071 23.5719 4.35273 22.9437 4.3159 22.3115C4.20064 20.5218 4.46973 18.7282 5.10513 17.0509C5.15688 16.9088 5.21295 16.7709 5.26901 16.6201C5.32508 16.4693 5.41996 16.2754 5.5019 16.1074C5.58384 15.9394 5.63559 15.8403 5.7046 15.7067C5.82104 15.4827 5.95043 15.2759 6.07981 15.0519C7.38065 12.8775 9.31798 11.1541 11.6303 10.1145C10.982 9.39932 10.1915 8.82722 9.30928 8.43477C8.42704 8.04232 7.47251 7.83816 6.50676 7.83535V0.838554C9.2332 0.846377 11.8978 1.65084 14.1722 3.15283C16.4466 4.65482 18.2315 6.78871 19.3069 9.29157C19.3099 9.29994 19.3099 9.30906 19.3069 9.31742C19.3932 9.5113 19.4708 9.70949 19.5441 9.90767C19.7885 10.5512 19.8855 11.2413 19.828 11.9271C19.7706 12.613 19.5601 13.2774 19.212 13.8714Z" fill="url(#paint0_linear_680_923)"/>
<path d="M24.6419 31.2772C23.8479 31.9147 22.9789 32.4529 22.0542 32.8799C20.577 33.5543 18.9809 33.9306 17.3577 33.9872H17.3318H16.9005H16.7841H16.383H16.1329H15.8094H15.7232C13.1901 33.7596 10.785 32.773 8.82282 31.1566C8.70206 31.0575 8.5813 30.9584 8.46486 30.8507C8.46324 30.8635 8.46324 30.8766 8.46486 30.8894C8.07873 31.7689 7.87937 32.7188 7.87937 33.6791C7.87937 34.6394 8.07873 35.5893 8.46486 36.4688L2.04322 39.2951C0.953288 36.8079 0.61187 34.0575 1.06066 31.3797C1.50945 28.7019 2.72903 26.2126 4.57047 24.2158C4.73436 24.0434 4.90255 23.8754 5.07074 23.7074C5.56396 23.2252 6.15863 22.859 6.81143 22.6354C7.46424 22.4118 8.15875 22.3364 8.84437 22.4149C10.0492 22.5412 11.1548 23.1391 11.9193 24.0779C11.984 24.1598 12.0444 24.2459 12.1048 24.3321C12.198 24.4818 12.3003 24.6257 12.411 24.7629C12.4671 24.8405 12.5318 24.918 12.5921 24.9913C12.6525 25.0645 12.7 25.1162 12.756 25.1765C13.0823 25.5434 13.46 25.8612 13.8773 26.1201C13.9305 26.1578 13.9867 26.191 14.0455 26.2192C14.2135 26.3206 14.3878 26.4113 14.5674 26.4906C14.6579 26.5337 14.7485 26.5724 14.8434 26.6069C14.9383 26.6414 15.059 26.6888 15.1668 26.7232C15.1811 26.7213 15.1956 26.7213 15.21 26.7232C15.3005 26.7534 15.3954 26.7749 15.4946 26.8008C15.6037 26.8308 15.7146 26.8538 15.8267 26.8697L16.1588 26.9257H16.4348C17.3814 26.9997 18.3309 26.8241 19.1884 26.4166C20.0459 26.0091 20.7813 25.3839 21.3211 24.6035C21.0465 25.1604 20.888 25.7672 20.8554 26.3871C20.8228 27.007 20.9167 27.6271 21.1313 28.2096C21.368 28.8565 21.7458 29.4427 22.2374 29.9256C22.7289 30.4085 23.322 30.776 23.9734 31.0015C24.1847 31.0747 24.4047 31.1436 24.6031 31.2039L24.6419 31.2772Z" fill="url(#paint1_linear_680_923)"/>
<path d="M14.6147 16.5038C14.8796 16.3888 15.1537 16.2965 15.4342 16.228C15.1555 16.3015 14.8829 16.3965 14.6191 16.5124L14.6147 16.5038Z" fill="url(#paint2_linear_680_923)"/>
<path d="M12.0874 18.6881C12.1643 18.5604 12.2478 18.4367 12.3375 18.3176C12.2513 18.4382 12.165 18.5589 12.0874 18.6881Z" fill="url(#paint3_linear_680_923)"/>
<path d="M39.2835 26.7879C37.9674 28.3678 36.3189 29.6385 34.4554 30.5098C32.5919 31.381 30.5591 31.8313 28.5017 31.8287C27.1882 31.8296 25.8813 31.644 24.6202 31.2772H24.5814C24.3701 31.2169 24.1501 31.1479 23.9517 31.0747C23.3003 30.8492 22.7073 30.4817 22.2157 29.9988C21.7241 29.5159 21.3463 28.9298 21.1097 28.2829C20.895 27.7003 20.8011 27.0802 20.8337 26.4603C20.8664 25.8404 21.0248 25.2336 21.2994 24.6768C21.9435 23.7524 22.2896 22.6536 22.2914 21.5273C22.2934 20.8921 22.1809 20.2616 21.9593 19.6661C21.5032 18.4153 20.607 17.373 19.438 16.7339C18.269 16.0949 16.9071 15.9028 15.6066 16.1936L15.4126 16.241C15.1321 16.3095 14.8579 16.4017 14.5931 16.5167C14.7691 16.441 14.9491 16.3748 15.1322 16.3185L15.3047 16.2711C15.3696 16.2494 15.4359 16.2321 15.5031 16.2194C15.645 16.1829 15.789 16.1556 15.9344 16.1376C16.6131 16.0303 17.2595 15.7736 17.8267 15.3861C18.394 14.9986 18.8679 14.49 19.2142 13.897C19.5605 13.3041 19.7705 12.6416 19.8291 11.9577C19.8876 11.2737 19.7933 10.5852 19.5528 9.94214C19.4795 9.74395 19.4018 9.54577 19.3156 9.35189C21.0453 9.70332 22.6793 10.4218 24.107 11.4587C25.7078 12.611 27.0117 14.1267 27.9114 15.881C28.8112 17.6352 29.281 19.5778 29.2823 21.5489C29.2823 21.6566 29.2823 21.7643 29.2823 21.872C29.2823 22.0788 29.2823 22.3028 29.2478 22.501C29.2133 22.6992 29.2133 22.8759 29.1917 23.0611V23.0999C29.1615 23.3282 29.127 23.5307 29.0839 23.7806C29.0235 24.1339 28.9416 24.4829 28.8467 24.8319H28.8726C29.833 24.7866 30.7734 24.5413 31.6335 24.1118C32.4935 23.6822 33.2542 23.0778 33.8667 22.3373L39.2835 26.7879Z" fill="url(#paint4_linear_680_923)"/>
<path d="M14.6105 16.4822C13.9353 16.7678 13.325 17.1869 12.8164 17.7144C13.3224 17.1838 13.9334 16.7642 14.6105 16.4822Z" fill="url(#paint5_linear_680_923)"/>
<path d="M21.5022 24.3278C22.0449 23.4108 22.3083 22.3557 22.2602 21.2915C22.2121 20.2274 21.8546 19.2003 21.2314 18.3359C20.6081 17.4715 19.7463 16.8073 18.7512 16.4245C17.7561 16.0418 16.6709 15.957 15.6283 16.1806C16.9287 15.8899 18.2906 16.082 19.4597 16.721C20.6287 17.36 21.5249 18.4023 21.9809 19.6532C22.2026 20.2487 22.3151 20.8791 22.313 21.5144C22.3113 22.6407 21.9652 23.7395 21.3211 24.6638C21.3513 24.5949 21.3901 24.526 21.4246 24.457C21.4258 24.4485 21.4258 24.4398 21.4246 24.4312L21.5022 24.3278Z" fill="url(#paint6_linear_680_923)"/>
<path d="M19.4967 22.0142C19.4192 21.8226 19.2946 21.6537 19.1344 21.523C18.9498 21.3802 18.7341 21.2828 18.5048 21.2387C18.783 21.1327 19.0192 20.9391 19.1776 20.6872C19.3227 20.4375 19.3973 20.1531 19.3932 19.8643C19.4068 19.6005 19.3506 19.3377 19.2302 19.1025C19.1098 18.8673 18.9295 18.6679 18.7075 18.5244C18.3983 18.3376 18.0554 18.2132 17.6983 18.1582V17.2405H17.211V18.1022C17.073 18.1022 16.9436 18.0806 16.7797 18.0806H15.943V17.2405H15.4514V18.0763H13.86V18.994L14.5328 19.1362V23.5006L13.86 23.6427V24.5561H15.4686V25.547H15.9603V24.5561H17.211V25.5514H17.6983V24.5087C18.1628 24.4788 18.6103 24.3223 18.9921 24.0563C19.2069 23.8858 19.3772 23.6658 19.4883 23.4152C19.5995 23.1646 19.6482 22.8909 19.6304 22.6174C19.6249 22.4096 19.5795 22.2048 19.4967 22.0142ZM16.0983 19.2698H16.7969C17.0688 19.2482 17.3405 19.3131 17.5732 19.455C17.6624 19.5239 17.7328 19.614 17.778 19.7171C17.8233 19.8203 17.8418 19.9331 17.832 20.0453C17.8383 20.1521 17.8161 20.2586 17.7676 20.354C17.7191 20.4494 17.6461 20.5302 17.556 20.5881C17.303 20.7219 17.0179 20.7831 16.7323 20.7648H16.0983V19.2698ZM17.8234 23.1861C17.6167 23.3214 17.3712 23.3849 17.1247 23.367H16.0983V21.7988H17.2023C17.3709 21.7922 17.5388 21.8231 17.694 21.8892C17.8154 21.9461 17.9131 22.0437 17.97 22.165C18.0316 22.3122 18.061 22.4708 18.0563 22.6303C18.0645 22.7347 18.0476 22.8396 18.0071 22.9363C17.9666 23.033 17.9036 23.1186 17.8234 23.1861Z" fill="#C18100"/>
</g>
<defs>
<linearGradient id="paint0_linear_680_923" x1="12.0831" y1="16.172" x2="11.063" y2="28.1021" gradientUnits="userSpaceOnUse">
<stop stop-color="#EE4036"/>
<stop offset="1" stop-color="#1C1C1C"/>
</linearGradient>
<linearGradient id="paint1_linear_680_923" x1="10.8369" y1="31.1738" x2="23.3523" y2="31.9681" gradientUnits="userSpaceOnUse">
<stop stop-color="#00ADEE"/>
<stop offset="1" stop-color="#1C1C1C"/>
</linearGradient>
<linearGradient id="paint2_linear_680_923" x1="11.7942" y1="16.1677" x2="24.3053" y2="16.9621" gradientUnits="userSpaceOnUse">
<stop stop-color="#EE4036"/>
<stop offset="1"/>
</linearGradient>
<linearGradient id="paint3_linear_680_923" x1="21.4719" y1="25.3833" x2="11.6977" y2="18.1013" gradientUnits="userSpaceOnUse">
<stop stop-color="#00A551"/>
<stop offset="1" stop-color="#1C1C1C"/>
</linearGradient>
<linearGradient id="paint4_linear_680_923" x1="24.3097" y1="21.5747" x2="14.5355" y2="14.2928" gradientUnits="userSpaceOnUse">
<stop stop-color="#00A551"/>
<stop offset="1" stop-color="#1C1C1C"/>
</linearGradient>
<linearGradient id="paint5_linear_680_923" x1="22.671" y1="23.772" x2="12.8968" y2="16.49" gradientUnits="userSpaceOnUse">
<stop stop-color="#00A551"/>
<stop offset="1" stop-color="#1C1C1C"/>
</linearGradient>
<linearGradient id="paint6_linear_680_923" x1="23.3524" y1="22.8586" x2="13.5782" y2="15.5766" gradientUnits="userSpaceOnUse">
<stop stop-color="#00A551"/>
<stop offset="1" stop-color="#1C1C1C"/>
</linearGradient>
<clipPath id="clip0_680_923">
<rect width="38.4263" height="38.4263" fill="white" transform="translate(0.857178 0.838539)"/>
</clipPath>
</defs>
</svg>
