<svg width="77" height="114" viewBox="0 0 77 114" fill="none" xmlns="http://www.w3.org/2000/svg">
<mask id="path-1-outside-1_629_865" maskUnits="userSpaceOnUse" x="0.370117" y="0.462585" width="76" height="114" fill="black">
<rect fill="white" x="0.370117" y="0.462585" width="76" height="114"/>
<path d="M18.916 3.71582C35.5755 16.3087 49.1994 32.4767 58.7852 51.0302C68.3711 69.5836 73.6748 90.0504 74.3063 110.924L48.717 111.698C48.2013 94.6501 43.8696 77.9344 36.0407 62.7814C28.2117 47.6283 17.0847 34.4235 3.47849 24.1386L18.916 3.71582Z"/>
</mask>
<path d="M18.916 3.71582C35.5755 16.3087 49.1994 32.4767 58.7852 51.0302C68.3711 69.5836 73.6748 90.0504 74.3063 110.924L48.717 111.698C48.2013 94.6501 43.8696 77.9344 36.0407 62.7814C28.2117 47.6283 17.0847 34.4235 3.47849 24.1386L18.916 3.71582Z" stroke="#171531" stroke-width="4" mask="url(#path-1-outside-1_629_865)"/>
</svg>
