<svg width="161" height="55" viewBox="0 0 161 55" fill="none" xmlns="http://www.w3.org/2000/svg">
<mask id="path-1-outside-1_640_961" maskUnits="userSpaceOnUse" x="-0.629883" y="0.462585" width="162" height="55" fill="black">
<rect fill="white" x="-0.629883" y="0.462585" width="162" height="55"/>
<path d="M2.97505 22.8783C26.5688 8.49487 53.8985 1.43229 81.5068 2.58396C109.115 3.73563 135.762 13.0498 158.076 29.3482L141.597 51.9081C123.746 38.8694 102.429 31.418 80.3424 30.4967C58.2558 29.5754 36.392 35.2254 17.517 46.7321L2.97505 22.8783Z"/>
</mask>
<path d="M2.97505 22.8783C26.5688 8.49487 53.8985 1.43229 81.5068 2.58396C109.115 3.73563 135.762 13.0498 158.076 29.3482L141.597 51.9081C123.746 38.8694 102.429 31.418 80.3424 30.4967C58.2558 29.5754 36.392 35.2254 17.517 46.7321L2.97505 22.8783Z" stroke="#171531" stroke-width="4" mask="url(#path-1-outside-1_640_961)"/>
</svg>
