<svg width="187" height="190" viewBox="0 0 187 190" fill="none" xmlns="http://www.w3.org/2000/svg">
<path d="M1.77278 117.193C0.724097 117.447 0.0778226 118.503 0.353309 119.546C6.06473 141.174 19.2703 160.1 37.6487 172.926C56.5617 186.125 79.6478 191.954 102.56 189.315C125.472 186.677 146.629 175.753 162.046 158.6C177.464 141.448 186.079 119.25 186.268 96.1875C186.458 73.1249 178.21 50.7886 163.076 33.3848C147.942 15.9809 126.968 4.71039 104.103 1.69545C81.2371 -1.31947 58.0583 4.12925 38.9307 17.0156C20.3439 29.5377 6.82889 48.2433 0.762586 69.7743C0.469973 70.8128 1.09879 71.88 2.14315 72.1511C3.18749 72.4222 4.25181 71.7946 4.54535 70.7563C10.3715 50.148 23.3177 32.2455 41.1139 20.2561C59.4507 7.9024 81.6715 2.6789 103.592 5.56922C125.512 8.45952 145.619 19.2642 160.127 35.9486C174.635 52.6331 182.543 74.046 182.361 96.1553C182.18 118.265 173.921 139.545 159.14 155.988C144.36 172.432 124.078 182.904 102.113 185.434C80.1479 187.963 58.0161 182.375 39.8849 169.722C22.2882 157.441 9.63817 139.328 4.15171 118.627C3.87529 117.584 2.82144 116.939 1.77278 117.193Z" fill="#FB8978"/>
</svg>
