<svg width="85" height="124" viewBox="0 0 85 124" fill="none" xmlns="http://www.w3.org/2000/svg">
<mask id="path-1-outside-1_629_866" maskUnits="userSpaceOnUse" x="-0.629883" y="-0.537415" width="86" height="124" fill="black">
<rect fill="white" x="-0.629883" y="-0.537415" width="86" height="124"/>
<path d="M1.99982 121.148C1.99982 97.5703 7.9678 74.3764 19.3477 53.7271C30.7277 33.0778 47.1493 15.6449 67.0826 3.05277L82.003 26.6718C66.0564 36.7455 52.9191 50.6917 43.8152 67.2112C34.7112 83.7307 29.9368 102.286 29.9368 121.148H1.99982Z"/>
</mask>
<path d="M1.99982 121.148C1.99982 97.5703 7.9678 74.3764 19.3477 53.7271C30.7277 33.0778 47.1493 15.6449 67.0826 3.05277L82.003 26.6718C66.0564 36.7455 52.9191 50.6917 43.8152 67.2112C34.7112 83.7307 29.9368 102.286 29.9368 121.148H1.99982Z" stroke="#171531" stroke-width="4" mask="url(#path-1-outside-1_629_866)"/>
</svg>
