<svg width="80" height="116" viewBox="0 0 80 116" fill="none" xmlns="http://www.w3.org/2000/svg">
<mask id="path-1-outside-1_629_867" maskUnits="userSpaceOnUse" x="-0.629883" y="-0.537415" width="81" height="117" fill="black">
<rect fill="white" x="-0.629883" y="-0.537415" width="81" height="117"/>
<path d="M60.4018 112.748C42.8788 100.21 28.4939 83.788 18.3721 64.7669C8.25024 45.7457 2.66589 24.6408 2.05582 3.10287L29.9816 2.31184C30.4697 19.5422 34.9372 36.4261 43.0347 51.6431C51.1321 66.86 62.64 79.9974 76.6584 90.0278L60.4018 112.748Z"/>
</mask>
<path d="M60.4018 112.748C42.8788 100.21 28.4939 83.788 18.3721 64.7669C8.25024 45.7457 2.66589 24.6408 2.05582 3.10287L29.9816 2.31184C30.4697 19.5422 34.9372 36.4261 43.0347 51.6431C51.1321 66.86 62.64 79.9974 76.6584 90.0278L60.4018 112.748Z" stroke="#171531" stroke-width="4" mask="url(#path-1-outside-1_629_867)"/>
</svg>
