<svg width="78" height="120" viewBox="0 0 78 120" fill="none" xmlns="http://www.w3.org/2000/svg">
<mask id="path-1-outside-1_629_868" maskUnits="userSpaceOnUse" x="0" y="0.462585" width="78" height="120" fill="black">
<rect fill="white" y="0.462585" width="78" height="120"/>
<path d="M19.7012 116.742C37.3078 103.486 51.5282 86.2529 61.2 66.4499C70.8719 46.6469 75.7209 24.8365 75.3506 2.80093L47.4175 3.27029C47.7137 20.8987 43.8346 38.3471 36.0971 54.1895C28.3596 70.0318 16.9833 83.8186 2.89803 94.423L19.7012 116.742Z"/>
</mask>
<path d="M19.7012 116.742C37.3078 103.486 51.5282 86.2529 61.2 66.4499C70.8719 46.6469 75.7209 24.8365 75.3506 2.80093L47.4175 3.27029C47.7137 20.8987 43.8346 38.3471 36.0971 54.1895C28.3596 70.0318 16.9833 83.8186 2.89803 94.423L19.7012 116.742Z" stroke="#171531" stroke-width="4" mask="url(#path-1-outside-1_629_868)"/>
</svg>
