<svg width="129" height="13" viewBox="0 0 129 13" fill="none" xmlns="http://www.w3.org/2000/svg"> <path d="M0.635986 12.5127L3.70595 0.962143H7.53025L10.6002 12.5127H8.31528L7.68375 9.9701H3.52614L2.8946 12.5127H0.635986ZM4.04365 7.95865H7.17063L5.75406 2.33358H5.45583L4.04365 7.95865Z" fill="#B5FCF8"/> <path d="M12.0387 12.5125V4.30563H14.135V7.35327H14.4245L17.1524 4.33176H19.8759L16.0691 8.29369L20.0162 12.5168H17.319L14.4245 9.26458H14.1263V12.5125H12.0387Z" fill="#B5FCF8"/> <path d="M21.3495 12.5125V0.961932H26.4018C27.0595 0.946934 27.7124 1.07627 28.3139 1.34071C28.8312 1.5698 29.2701 1.94347 29.577 2.41609C29.8801 2.90636 30.0325 3.47376 30.0156 4.04875V4.24467C30.0447 4.84551 29.8703 5.43874 29.52 5.92959C29.2 6.34554 28.7748 6.67 28.2876 6.87V7.16606C28.4805 7.16344 28.6717 7.20081 28.8492 7.27578C29.0267 7.35075 29.1864 7.46166 29.3182 7.60143C29.5748 7.91542 29.7059 8.31217 29.6866 8.716V12.4951H27.4938V9.01206C27.5032 8.77994 27.4302 8.55192 27.2877 8.36769C27.1984 8.27881 27.0902 8.21081 26.9711 8.16863C26.852 8.12646 26.7249 8.11117 26.5991 8.12388H23.5292V12.4777L21.3495 12.5125ZM23.5423 6.17775H26.1737C26.6235 6.19908 27.0636 6.04252 27.3973 5.74237C27.545 5.59745 27.6603 5.42334 27.7359 5.23134C27.8114 5.03934 27.8455 4.83372 27.8359 4.62781V4.46236C27.8441 4.2566 27.8094 4.05137 27.734 3.85957C27.6585 3.66776 27.5439 3.49352 27.3973 3.3478C27.2321 3.19784 27.0383 3.0821 26.8275 3.00734C26.6166 2.93258 26.3929 2.90031 26.1693 2.91242H23.5379L23.5423 6.17775Z" fill="#B5FCF8"/> <path d="M35.844 12.7432C35.0844 12.752 34.3333 12.5835 33.6512 12.2513C33.007 11.9297 32.4696 11.4309 32.1031 10.8145C31.7101 10.1268 31.5144 9.34527 31.5373 8.55491V8.28933C31.5144 7.49896 31.7101 6.71747 32.1031 6.02972C32.4696 5.4133 33.007 4.91455 33.6512 4.59297C34.3416 4.26618 35.0968 4.0966 35.8616 4.0966C36.6264 4.0966 37.3816 4.26618 38.072 4.59297C38.7161 4.91455 39.2536 5.4133 39.6201 6.02972C40.0131 6.71747 40.2087 7.49896 40.1859 8.28933V8.55491C40.2087 9.34527 40.0131 10.1268 39.6201 10.8145C39.2536 11.4309 38.7161 11.9297 38.072 12.2513C37.3793 12.5888 36.6155 12.7575 35.844 12.7432ZM35.844 10.8972C36.1383 10.9058 36.4313 10.8555 36.7056 10.7493C36.9798 10.6431 37.2298 10.4832 37.4404 10.279C37.6614 10.0408 37.8313 9.76055 37.9399 9.4552C38.0485 9.14984 38.0934 8.82577 38.072 8.50266V8.33722C38.094 8.01542 38.0501 7.69254 37.9431 7.38801C37.8361 7.08348 37.6681 6.8036 37.4492 6.56523C37.0124 6.16749 36.4412 5.94684 35.8484 5.94684C35.2557 5.94684 34.6845 6.16749 34.2477 6.56523C34.0266 6.80246 33.8566 7.08195 33.748 7.38662C33.6394 7.6913 33.5945 8.01475 33.6161 8.33722V8.50266C33.5947 8.82577 33.6396 9.14984 33.7482 9.4552C33.8568 9.76055 34.0267 10.0408 34.2477 10.279C34.4598 10.48 34.7103 10.6368 34.9845 10.74C35.2587 10.8432 35.551 10.8907 35.844 10.8798V10.8972Z" fill="#B5FCF8"/> <path d="M42.0936 12.5125V4.34916H44.1549V5.21992H44.4531C44.6227 4.92156 44.8695 4.67356 45.168 4.50155C45.5696 4.28094 46.0251 4.17542 46.4837 4.19678C46.9775 4.17326 47.4677 4.29114 47.8959 4.53637C48.2416 4.74862 48.5234 5.04941 48.7116 5.40712H49.0098C49.1996 5.05609 49.4738 4.75699 49.808 4.53637C50.2513 4.2804 50.761 4.1607 51.2728 4.19243C51.7545 4.18473 52.2306 4.29541 52.6587 4.51461C53.0801 4.73315 53.4266 5.07108 53.6542 5.4855C53.9221 5.99213 54.0521 6.55941 54.0314 7.13122V12.5081H51.9351V7.28361C51.9599 7.10417 51.9433 6.92149 51.8867 6.74932C51.8301 6.57714 51.7349 6.41996 51.6082 6.28961C51.4816 6.15926 51.3268 6.05913 51.1555 5.99677C50.9842 5.9344 50.8009 5.91144 50.6194 5.92958C50.4141 5.91558 50.2082 5.94741 50.017 6.02276C49.8257 6.0981 49.6539 6.21503 49.5142 6.36496C49.2287 6.73889 49.09 7.20312 49.1238 7.67109V12.5038H47.0275V7.27925C47.0425 7.09564 47.0196 6.91092 46.96 6.73645C46.9004 6.56199 46.8055 6.40148 46.681 6.26482C46.5482 6.14636 46.3929 6.05533 46.2242 5.99703C46.0556 5.93873 45.8769 5.91432 45.6986 5.92522C45.4934 5.91122 45.2875 5.94306 45.0963 6.0184C44.905 6.09375 44.7332 6.21067 44.5935 6.3606C44.308 6.73453 44.1693 7.19876 44.2031 7.66673V12.4994L42.0936 12.5125Z" fill="#B5FCF8"/> <path d="M58.8512 12.7432C58.3092 12.753 57.7712 12.6491 57.2724 12.4385C56.8267 12.2501 56.4437 11.9407 56.1672 11.5459C55.8859 11.1248 55.7434 10.6273 55.7593 10.1223C55.7414 9.62104 55.8842 9.12712 56.1672 8.71164C56.4498 8.31893 56.8414 8.01637 57.2943 7.84089C57.8234 7.64103 58.3861 7.54349 58.9521 7.55354H61.2107V7.09204C61.2169 6.91772 61.1879 6.74393 61.1254 6.58091C61.0629 6.4179 60.9681 6.26897 60.8467 6.14291C60.687 6.00699 60.5015 5.90422 60.3011 5.84066C60.1008 5.7771 59.8896 5.75404 59.6801 5.77285C59.2617 5.74055 58.8466 5.86653 58.5179 6.1255C58.2589 6.37252 58.0841 6.6937 58.0179 7.04415L56.0882 6.40849C56.2226 5.98692 56.4403 5.59617 56.7285 5.2591C57.0509 4.89207 57.4548 4.60442 57.9083 4.41882C58.4805 4.18965 59.094 4.07998 59.7108 4.09664C60.641 4.04613 61.5578 4.33405 62.2896 4.90644C62.6138 5.20173 62.8672 5.56544 63.0312 5.9708C63.1951 6.37617 63.2654 6.81288 63.2369 7.24877V10.2964C63.2369 10.6273 63.3904 10.7927 63.7018 10.7927H64.364V12.5081H62.9737C62.6124 12.5227 62.2564 12.4186 61.9606 12.2121C61.8334 12.123 61.7303 12.004 61.6607 11.8657C61.591 11.7274 61.557 11.5742 61.5615 11.4197H61.2458C61.1709 11.6075 61.069 11.7835 60.9432 11.9421C60.7493 12.1856 60.4997 12.3797 60.2152 12.5081C59.7845 12.6886 59.318 12.769 58.8512 12.7432ZM59.2152 11.0627C59.7392 11.0837 60.2521 10.9098 60.6537 10.5751C60.839 10.4125 60.9853 10.2108 61.0817 9.9848C61.178 9.75875 61.2221 9.51413 61.2107 9.26892V9.10348H59.1012C58.7766 9.08509 58.4548 9.17222 58.1846 9.35165C58.0771 9.43169 57.9909 9.5366 57.9336 9.65725C57.8763 9.7779 57.8495 9.91064 57.8557 10.0439C57.8503 10.1838 57.879 10.323 57.9393 10.4495C57.9996 10.5761 58.0898 10.6864 58.2021 10.771C58.496 10.981 58.8538 11.084 59.2152 11.0627Z" fill="#B5FCF8"/> <path d="M65.8989 12.5125V4.34915H67.9602V5.42453H68.2584C68.4332 5.09213 68.6915 4.81019 69.0084 4.60602C69.5104 4.31338 70.0898 4.17831 70.6705 4.21854C71.2632 4.20501 71.8479 4.35578 72.359 4.65392C72.8396 4.94369 73.2286 5.36153 73.4817 5.85991C73.7554 6.41667 73.8922 7.02991 73.8808 7.64931V12.5342H71.7845V7.79299C71.8278 7.29214 71.6702 6.79456 71.3459 6.40848C71.1701 6.2463 70.9626 6.12166 70.7363 6.04228C70.51 5.9629 70.2697 5.93047 70.0302 5.94699C69.7485 5.93153 69.467 5.98085 69.2076 6.09111C68.9482 6.20136 68.7179 6.36957 68.5347 6.58264C68.1526 7.09255 67.9646 7.72028 68.004 8.35462V12.5125H65.8989Z" fill="#B5FCF8"/> <path d="M81.8365 12.5125V0.961952H84.0294V12.5125H81.8365Z" fill="#B5FCF8"/> <path d="M86.2925 12.5125V4.34915H88.3537V5.42453H88.652C88.8268 5.09213 89.0851 4.81019 89.4019 4.60602C89.9039 4.31338 90.4833 4.17831 91.0641 4.21854C91.6568 4.20432 92.2417 4.35514 92.7526 4.65392C93.2322 4.94478 93.621 5.36233 93.8753 5.85991C94.1502 6.41623 94.2871 7.02978 94.2744 7.64931V12.5342H92.178V7.79299C92.2204 7.29225 92.0629 6.79502 91.7395 6.40848C91.5636 6.2463 91.3561 6.12166 91.1298 6.04228C90.9035 5.9629 90.6632 5.93047 90.4238 5.94699C90.142 5.93153 89.8605 5.98085 89.6011 6.09111C89.3417 6.20136 89.1115 6.36957 88.9283 6.58264C88.5461 7.09255 88.3581 7.72028 88.3976 8.35462V12.5125H86.2925Z" fill="#B5FCF8"/> <path d="M98.0284 12.5125L95.397 4.32738H97.6249L99.537 10.993H99.8353L101.752 4.34916H103.98L101.348 12.5342L98.0284 12.5125Z" fill="#B5FCF8"/> <path d="M108.936 12.7432C108.179 12.758 107.432 12.5796 106.765 12.2251C106.144 11.8844 105.636 11.3735 105.3 10.7536C104.939 10.0647 104.759 9.29635 104.778 8.52007V8.31979C104.759 7.54533 104.937 6.77855 105.296 6.09066C105.623 5.47325 106.125 4.96355 106.738 4.62344C107.401 4.26503 108.146 4.08491 108.901 4.10099C109.64 4.08308 110.37 4.26841 111.01 4.6365C111.607 4.99129 112.092 5.50577 112.409 6.12114C112.752 6.80452 112.922 7.56072 112.905 8.32415V9.03381H106.905C106.908 9.29356 106.965 9.54987 107.074 9.78612C107.183 10.0224 107.34 10.2333 107.537 10.4053C107.94 10.7592 108.463 10.9476 109.001 10.9321C109.473 10.9766 109.943 10.8411 110.317 10.5533C110.584 10.3198 110.799 10.0336 110.949 9.713L112.663 10.5838C112.473 10.9188 112.246 11.2327 111.988 11.5198C111.66 11.8845 111.262 12.1805 110.817 12.3906C110.225 12.6484 109.582 12.769 108.936 12.7432ZM106.923 7.47952H110.778C110.764 7.26181 110.707 7.04898 110.609 6.85375C110.511 6.65851 110.375 6.48487 110.208 6.34318C109.819 6.06319 109.352 5.91238 108.872 5.91238C108.392 5.91238 107.925 6.06319 107.537 6.34318C107.2 6.63588 106.982 7.03954 106.923 7.47952Z" fill="#B5FCF8"/> <path d="M118.194 12.7432C117.267 12.7794 116.35 12.5382 115.562 12.051C115.226 11.8263 114.941 11.5338 114.727 11.1924C114.512 10.8511 114.372 10.4686 114.317 10.07L116.247 9.57369C116.298 9.90473 116.432 10.2177 116.637 10.4836C116.813 10.7024 117.049 10.8658 117.317 10.9538C117.6 11.0472 117.896 11.0943 118.194 11.0932C118.572 11.1229 118.949 11.0329 119.273 10.8363C119.379 10.768 119.467 10.6746 119.528 10.5644C119.589 10.4543 119.622 10.3308 119.624 10.205C119.628 10.0861 119.599 9.96839 119.54 9.86473C119.481 9.76106 119.395 9.67545 119.29 9.61723C118.958 9.44296 118.597 9.32801 118.225 9.27764L117.76 9.19492C117.22 9.10099 116.692 8.95517 116.181 8.75954C115.737 8.59299 115.343 8.31734 115.036 7.95844C114.737 7.5895 114.581 7.12585 114.598 6.65231C114.579 6.29064 114.651 5.93003 114.808 5.60313C114.965 5.27623 115.202 4.99338 115.497 4.78019C116.192 4.31624 117.019 4.08722 117.856 4.12713C118.665 4.09731 119.464 4.30969 120.15 4.73665C120.732 5.10814 121.158 5.67785 121.347 6.33885L119.4 6.93095C119.374 6.75726 119.312 6.59063 119.22 6.44101C119.127 6.2914 119.005 6.16187 118.86 6.0602C118.56 5.87424 118.21 5.78176 117.856 5.79462C117.539 5.77597 117.222 5.84691 116.944 5.99925C116.846 6.05861 116.765 6.14251 116.709 6.24259C116.654 6.34267 116.626 6.45542 116.628 6.56959C116.622 6.68838 116.649 6.80657 116.707 6.91056C116.765 7.01455 116.852 7.1001 116.957 7.15735C117.238 7.30278 117.542 7.39994 117.856 7.4447L118.321 7.52742C118.896 7.62318 119.461 7.76886 120.009 7.9628C120.47 8.11369 120.882 8.38075 121.207 8.73777C121.516 9.12159 121.672 9.60521 121.645 10.0961C121.665 10.4787 121.59 10.8603 121.426 11.2072C121.263 11.5542 121.015 11.8559 120.707 12.0858C119.964 12.5714 119.081 12.8023 118.194 12.7432Z" fill="#B5FCF8"/> <path d="M126.469 12.5125C126.227 12.5223 125.986 12.483 125.76 12.3969C125.533 12.3108 125.327 12.1798 125.154 12.0119C124.982 11.8335 124.848 11.6223 124.76 11.391C124.673 11.1598 124.634 10.9133 124.645 10.6665V6.04283H122.584V4.34921H124.645V1.80661H126.741V4.34921H129V6.0646H126.741V10.3226C126.741 10.6535 126.895 10.8189 127.206 10.8189H128.803V12.5343L126.469 12.5125Z" fill="#B5FCF8"/> </svg>