<?xml version="1.0" encoding="utf-8"?>
<svg viewBox="0 0 310 129.484" fill="none" xmlns="http://www.w3.org/2000/svg">
    <path d="M263 129.5C263 115.646 260.271 101.927 254.969 89.1269C249.667 76.327 241.896 64.6968 232.1 54.9002C222.303 45.1037 210.673 37.3326 197.873 32.0307C185.073 26.7288 171.354 24 157.5 24C143.646 24 129.927 26.7288 117.127 32.0307C104.327 37.3326 92.6968 45.1037 82.9002 54.9002C73.1036 64.6968 65.3326 76.3271 60.0307 89.1269C54.7288 101.927 52 115.646 52 129.5L57.275 129.5C57.275 116.338 59.8674 103.305 64.9042 91.1456C69.9409 78.9857 77.3235 67.937 86.6302 58.6302C95.937 49.3235 106.986 41.941 119.146 36.9042C131.305 31.8674 144.338 29.275 157.5 29.275C170.662 29.275 183.695 31.8674 195.854 36.9042C208.014 41.941 219.063 49.3235 228.37 58.6302C237.677 67.937 245.059 78.9857 250.096 91.1456C255.133 103.305 257.725 116.338 257.725 129.5H263Z"
          fill="#9C4B09"/>
    <path d="M263 129.5C263 107.221 255.947 85.5131 242.851 67.4887C229.756 49.4642 211.29 36.0483 190.101 29.1635C168.912 22.2788 146.088 22.2788 124.899 29.1635C103.71 36.0483 85.2442 49.4642 72.1487 67.4887L76.4163 70.5892C88.857 53.466 106.399 40.7208 126.529 34.1804C146.658 27.6399 168.342 27.6399 188.471 34.1804C208.601 40.7208 226.143 53.466 238.584 70.5892C251.024 87.7124 257.725 108.335 257.725 129.5H263Z"
          fill="#FF9238"/>
    <path d="M263 129.5C263 112.851 259.06 96.4384 251.501 81.604C243.943 66.7696 232.981 53.9347 219.511 44.1487C206.042 34.3627 190.448 27.9034 174.004 25.2989C157.56 22.6944 140.733 24.0187 124.899 29.1635L126.529 34.1804C141.571 29.2928 157.557 28.0347 173.179 30.5089C188.8 32.9832 203.615 39.1195 216.411 48.4163C229.207 57.713 239.621 69.9062 246.801 83.9988C253.982 98.0914 257.725 113.683 257.725 129.5H263Z"
          fill="white"/>
    <path d="M263 129.5C263 107.221 255.947 85.5131 242.851 67.4887C229.756 49.4642 211.29 36.0483 190.101 29.1635L188.471 34.1804C208.601 40.7208 226.143 53.466 238.584 70.5892C251.024 87.7124 257.725 108.335 257.725 129.5H263Z"
          fill="#00859C"/>
    <path d="M263 129.5C263 107.221 255.947 85.5131 242.851 67.4887L238.584 70.5892C251.024 87.7124 257.725 108.335 257.725 129.5H263Z"
          fill="#1CCAE8"/>
    <path d="M136.18 3V5.98H134.2V3H133.19V10H134.2V6.93H136.18V10H137.19V3H136.18ZM139.601 9.05V6.91H141.831V5.98H139.601V3.95H142.021V3H138.591V10H142.121V9.05H139.601ZM145.3 2.32C145.99 2.32 146.47 1.89 146.5 1.12H145.81C145.79 1.47 145.6 1.65 145.29 1.65C144.99 1.65 144.8 1.47 144.78 1.12H144.09C144.12 1.88 144.6 2.32 145.3 2.32ZM143.2 10H144.22L145.91 6.17C146.08 5.78 146.28 5.24 146.41 4.88L146.44 4.9C146.39 5.48 146.35 6.42 146.35 6.95V10H147.34V3H146.31L144.61 6.86C144.42 7.27 144.24 7.76 144.11 8.1L144.08 8.08C144.15 7.47 144.19 6.56 144.19 6.06V3H143.2V10ZM152.147 3H148.207V3.96H149.657V10H150.687V3.96H152.147V3ZM154.806 3H152.956V10H153.966V7.54H154.806C156.176 7.54 156.956 6.73 156.956 5.26C156.956 3.83 156.176 3 154.806 3ZM154.796 6.58H153.966V3.96H154.796C155.556 3.96 155.926 4.4 155.926 5.26C155.926 6.16 155.556 6.58 154.796 6.58ZM160.466 10H161.516L159.756 3H158.666L156.906 10H157.966L158.286 8.59H160.136L160.466 10ZM158.506 7.65L158.936 5.77C159.046 5.31 159.146 4.64 159.196 4.27H159.226C159.276 4.64 159.386 5.31 159.486 5.77L159.926 7.65H158.506ZM162.789 3C162.669 5.89 162.579 7.46 162.469 8.19C162.359 8.91 162.139 9.18 161.699 9.18V10.1C162.669 10.1 163.259 9.69 163.439 8.42C163.569 7.59 163.659 5.99 163.759 3.95H165.239V10H166.249V3H162.789ZM167.653 10H169.523C170.883 10 171.623 9.28 171.623 7.9C171.623 6.63 170.883 5.79 169.523 5.79H168.663V3H167.653V10ZM168.663 9.07V6.75H169.473C170.163 6.75 170.583 7.13 170.583 7.9C170.583 8.69 170.163 9.07 169.473 9.07H168.663ZM175.516 3V5.98H173.536V3H172.526V10H173.536V6.93H175.516V10H176.526V3H175.516ZM179.867 10.13C181.207 10.13 182.007 9.24 182.007 7.78V5.22C182.007 3.76 181.207 2.87 179.867 2.87C178.527 2.87 177.727 3.76 177.727 5.22V7.78C177.727 9.24 178.527 10.13 179.867 10.13ZM179.867 9.14C179.137 9.14 178.767 8.66 178.767 7.78V5.22C178.767 4.34 179.137 3.86 179.867 3.86C180.587 3.86 180.967 4.34 180.967 5.22V7.78C180.967 8.66 180.587 9.14 179.867 9.14Z"
          fill="white"/>
    <path d="M12.0804 101.146H13.1304L11.3704 94.1459H10.2804L8.52039 101.146H9.58039L9.90039 99.7359H11.7504L12.0804 101.146ZM10.1204 98.7959L10.5504 96.9159C10.6604 96.4559 10.7604 95.7859 10.8104 95.4159H10.8404C10.8904 95.7859 11.0004 96.4559 11.1004 96.9159L11.5404 98.7959H10.1204Z"
          fill="white"/>
    <path d="M17.0763 101.146H18.2362L15.9462 97.1959L17.9463 94.1459H16.7663L15.3663 96.3659L14.9062 97.1859V94.1459H13.9062V101.146H14.9062V98.7759L15.3663 98.0859L17.0763 101.146Z"
          fill="white"/>
    <path d="M22.3455 94.1459H18.4055V95.1059H19.8555V101.146H20.8855V95.1059H22.3455V94.1459Z" fill="white"/>
    <path d="M23.1543 101.146H24.1743L25.8643 97.3159C26.0343 96.9259 26.2343 96.3859 26.3643 96.0259L26.3943 96.0459C26.3443 96.6259 26.3043 97.5659 26.3043 98.0959V101.146H27.2943V94.1459H26.2643L24.5643 98.0059C24.3743 98.4159 24.1943 98.9059 24.0643 99.2459L24.0343 99.2259C24.1043 98.6159 24.1443 97.7059 24.1443 97.2059V94.1459H23.1543V101.146Z"
          fill="white"/>
    <path d="M31.7414 97.5459C32.1714 97.2759 32.4514 96.7259 32.4514 96.0459C32.4514 94.8759 31.7214 94.1459 30.5914 94.1459H28.6914V101.146H30.6914C31.9114 101.146 32.7114 100.396 32.7114 99.1459C32.7114 98.3859 32.3414 97.7959 31.7414 97.5459ZM30.4714 95.0959C31.1214 95.0959 31.4214 95.4159 31.4214 96.0759C31.4214 96.7559 31.1114 97.1059 30.5014 97.1059H29.7014V95.0959H30.4714ZM30.5614 100.196H29.7014V98.0559H30.5214C31.2314 98.0559 31.6814 98.4259 31.6814 99.1459C31.6814 99.8559 31.3014 100.196 30.5614 100.196Z"
          fill="white"/>
    <path d="M36.6521 94.1459V97.1259H34.6721V94.1459H33.6621V101.146H34.6721V98.0759H36.6521V101.146H37.6621V94.1459H36.6521Z"
          fill="white"/>
    <path d="M41.0025 101.276C42.3425 101.276 43.1425 100.386 43.1425 98.9259V96.3659C43.1425 94.9059 42.3425 94.0159 41.0025 94.0159C39.6625 94.0159 38.8625 94.9059 38.8625 96.3659V98.9259C38.8625 100.386 39.6625 101.276 41.0025 101.276ZM41.0025 100.286C40.2725 100.286 39.9025 99.8059 39.9025 98.9259V96.3659C39.9025 95.4859 40.2725 95.0059 41.0025 95.0059C41.7225 95.0059 42.1025 95.4859 42.1025 96.3659V98.9259C42.1025 99.8059 41.7225 100.286 41.0025 100.286Z"
          fill="white"/>
    <path d="M4 106.146H0V113.146H1.01V107.106H2.99V113.146H4V106.146Z" fill="white"/>
    <path d="M7.24063 106.146H5.39062V113.146H6.40063V110.686H7.24063C8.61063 110.686 9.39062 109.876 9.39062 108.406C9.39062 106.976 8.61063 106.146 7.24063 106.146ZM7.23063 109.726H6.40063V107.106H7.23063C7.99063 107.106 8.36063 107.546 8.36063 108.406C8.36063 109.306 7.99063 109.726 7.23063 109.726Z"
          fill="white"/>
    <path d="M12.3404 113.276C13.6804 113.276 14.4804 112.386 14.4804 110.926V108.366C14.4804 106.906 13.6804 106.016 12.3404 106.016C11.0004 106.016 10.2004 106.906 10.2004 108.366V110.926C10.2004 112.386 11.0004 113.276 12.3404 113.276ZM12.3404 112.286C11.6104 112.286 11.2404 111.806 11.2404 110.926V108.366C11.2404 107.486 11.6104 107.006 12.3404 107.006C13.0604 107.006 13.4404 107.486 13.4404 108.366V110.926C13.4404 111.806 13.0604 112.286 12.3404 112.286Z"
          fill="white"/>
    <path d="M19.7336 112.196V106.146H16.3636L16.2436 109.526C16.2036 110.626 15.9636 111.676 15.4536 112.196H15.0436V114.316H16.0336V113.146H19.3636V114.316H20.3536V112.196H19.7336ZM18.7336 112.196H16.6636C16.9936 111.606 17.1736 110.796 17.2136 109.806L17.3136 107.096H18.7336V112.196Z"
          fill="white"/>
    <path d="M24.1702 113.146H25.2202L23.4602 106.146H22.3702L20.6102 113.146H21.6702L21.9902 111.736H23.8402L24.1702 113.146ZM22.2102 110.796L22.6402 108.916C22.7502 108.456 22.8502 107.786 22.9002 107.416H22.9302C22.9802 107.786 23.0902 108.456 23.1902 108.916L23.6302 110.796H22.2102Z"
          fill="white"/>
    <path d="M29.0461 109.546C29.4761 109.276 29.7561 108.726 29.7561 108.046C29.7561 106.876 29.0261 106.146 27.8961 106.146H25.9961V113.146H27.9961C29.2161 113.146 30.0161 112.396 30.0161 111.146C30.0161 110.386 29.6461 109.796 29.0461 109.546ZM27.7761 107.096C28.4261 107.096 28.7261 107.416 28.7261 108.076C28.7261 108.756 28.4161 109.106 27.8061 109.106H27.0061V107.096H27.7761ZM27.8661 112.196H27.0061V110.056H27.8261C28.5361 110.056 28.9861 110.426 28.9861 111.146C28.9861 111.856 28.6061 112.196 27.8661 112.196Z"
          fill="white"/>
    <path d="M33.7991 113.146H34.8491L33.0891 106.146H31.9991L30.2391 113.146H31.2991L31.6191 111.736H33.4691L33.7991 113.146ZM31.8391 110.796L32.2691 108.916C32.3791 108.456 32.4791 107.786 32.5291 107.416H32.5591C32.6091 107.786 32.7191 108.456 32.8191 108.916L33.2591 110.796H31.8391Z"
          fill="white"/>
    <path d="M38.6639 106.146H34.7239V107.106H36.1739V113.146H37.2039V107.106H38.6639V106.146Z" fill="white"/>
    <path d="M39.4727 113.146H41.3427C42.7027 113.146 43.4427 112.426 43.4427 111.046C43.4427 109.776 42.7027 108.936 41.3427 108.936H40.4827V106.146H39.4727V113.146ZM40.4827 112.216V109.896H41.2927C41.9827 109.896 42.4027 110.276 42.4027 111.046C42.4027 111.836 41.9827 112.216 41.2927 112.216H40.4827Z"
          fill="white"/>
    <path d="M274.63 103.146H275.68L273.92 96.1459H272.83L271.07 103.146H272.13L272.45 101.736H274.3L274.63 103.146ZM272.67 100.796L273.1 98.9159C273.21 98.4559 273.31 97.7859 273.36 97.4159H273.39C273.44 97.7859 273.55 98.4559 273.65 98.9159L274.09 100.796H272.67ZM279.626 103.146H280.786L278.496 99.1959L280.496 96.1459H279.316L277.916 98.3659L277.456 99.1859V96.1459H276.456V103.146H277.456V100.776L277.916 100.086L279.626 103.146ZM284.895 96.1459H280.955V97.1059H282.405V103.146H283.435V97.1059H284.895V96.1459ZM285.704 103.146H286.724L288.414 99.3159C288.584 98.9259 288.784 98.3859 288.914 98.0259L288.944 98.0459C288.894 98.6259 288.854 99.5659 288.854 100.096V103.146H289.844V96.1459H288.814L287.114 100.006C286.924 100.416 286.744 100.906 286.614 101.246L286.584 101.226C286.654 100.616 286.694 99.7059 286.694 99.2059V96.1459H285.704V103.146ZM294.291 99.5459C294.721 99.2759 295.001 98.7259 295.001 98.0459C295.001 96.8759 294.271 96.1459 293.141 96.1459H291.241V103.146H293.241C294.461 103.146 295.261 102.396 295.261 101.146C295.261 100.386 294.891 99.7959 294.291 99.5459ZM293.021 97.0959C293.671 97.0959 293.971 97.4159 293.971 98.0759C293.971 98.7559 293.661 99.1059 293.051 99.1059H292.251V97.0959H293.021ZM293.111 102.196H292.251V100.056H293.071C293.781 100.056 294.231 100.426 294.231 101.146C294.231 101.856 293.851 102.196 293.111 102.196ZM299.202 96.1459V99.1259H297.222V96.1459H296.212V103.146H297.222V100.076H299.202V103.146H300.212V96.1459H299.202ZM303.552 103.276C304.892 103.276 305.692 102.386 305.692 100.926V98.3659C305.692 96.9059 304.892 96.0159 303.552 96.0159C302.212 96.0159 301.412 96.9059 301.412 98.3659V100.926C301.412 102.386 302.212 103.276 303.552 103.276ZM303.552 102.286C302.822 102.286 302.452 101.806 302.452 100.926V98.3659C302.452 97.4859 302.822 97.0059 303.552 97.0059C304.272 97.0059 304.652 97.4859 304.652 98.3659V100.926C304.652 101.806 304.272 102.286 303.552 102.286ZM275.7 108.146H271.7V115.146H272.71V109.106H274.69V115.146H275.7V108.146ZM279.031 115.276C280.371 115.276 281.171 114.386 281.171 112.926V110.366C281.171 108.906 280.371 108.016 279.031 108.016C277.691 108.016 276.891 108.906 276.891 110.366V112.926C276.891 114.386 277.691 115.276 279.031 115.276ZM279.031 114.286C278.301 114.286 277.931 113.806 277.931 112.926V110.366C277.931 109.486 278.301 109.006 279.031 109.006C279.751 109.006 280.131 109.486 280.131 110.366V112.926C280.131 113.806 279.751 114.286 279.031 114.286ZM285.544 115.146H286.704L284.414 111.196L286.414 108.146H285.234L283.834 110.366L283.374 111.186V108.146H282.374V115.146H283.374V112.776L283.834 112.086L285.544 115.146ZM289.973 108.146L288.963 111.556L287.823 108.146H286.753L288.513 113.096L288.433 113.356C288.223 114.056 287.993 114.336 287.453 114.336H287.173V115.246H287.423C288.483 115.246 288.973 114.836 289.333 113.676L291.033 108.146H289.973ZM295.739 108.146H291.739V115.146H292.749V109.106H294.729V115.146H295.739V108.146ZM300.06 115.146H301.11L299.35 108.146H298.26L296.5 115.146H297.56L297.88 113.736H299.73L300.06 115.146ZM298.1 112.796L298.53 110.916C298.64 110.456 298.74 109.786 298.79 109.416H298.82C298.87 109.786 298.98 110.456 299.08 110.916L299.52 112.796H298.1ZM304.924 108.146H300.984V109.106H302.434V115.146H303.464V109.106H304.924V108.146ZM305.733 115.146H307.603C308.963 115.146 309.703 114.426 309.703 113.046C309.703 111.776 308.963 110.936 307.603 110.936H306.743V108.146H305.733V115.146ZM306.743 114.216V111.896H307.553C308.243 111.896 308.663 112.276 308.663 113.046C308.663 113.836 308.243 114.216 307.553 114.216H306.743Z"
          fill="white"/>
    <path d="M33.7635 47.1459H29.7635V54.1459H30.7735V48.1059H32.7535V54.1459H33.7635V47.1459Z" fill="white"/>
    <path d="M37.0041 47.1459H35.1541V54.1459H36.1641V51.6859H37.0041C38.3741 51.6859 39.1541 50.8759 39.1541 49.4059C39.1541 47.9759 38.3741 47.1459 37.0041 47.1459ZM36.9941 50.7259H36.1641V48.1059H36.9941C37.7541 48.1059 38.1241 48.5459 38.1241 49.4059C38.1241 50.3059 37.7541 50.7259 36.9941 50.7259Z"
          fill="white"/>
    <path d="M42.1039 54.2759C43.4439 54.2759 44.2439 53.3859 44.2439 51.9259V49.3659C44.2439 47.9059 43.4439 47.0159 42.1039 47.0159C40.7639 47.0159 39.9639 47.9059 39.9639 49.3659V51.9259C39.9639 53.3859 40.7639 54.2759 42.1039 54.2759ZM42.1039 53.2859C41.3739 53.2859 41.0039 52.8059 41.0039 51.9259V49.3659C41.0039 48.4859 41.3739 48.0059 42.1039 48.0059C42.8239 48.0059 43.2039 48.4859 43.2039 49.3659V51.9259C43.2039 52.8059 42.8239 53.2859 42.1039 53.2859Z"
          fill="white"/>
    <path d="M49.4971 53.1959V47.1459H46.1271L46.0071 50.5259C45.9671 51.6259 45.7271 52.6759 45.2171 53.1959H44.8071V55.3159H45.7971V54.1459H49.1271V55.3159H50.1171V53.1959H49.4971ZM48.4971 53.1959H46.4271C46.7571 52.6059 46.9371 51.7959 46.9771 50.8059L47.0771 48.0959H48.4971V53.1959Z"
          fill="white"/>
    <path d="M59.3369 50.5459C59.7669 50.2759 60.0469 49.7259 60.0469 49.0459C60.0469 47.8759 59.3169 47.1459 58.1869 47.1459H56.2869V54.1459H58.2869C59.5069 54.1459 60.3069 53.3959 60.3069 52.1459C60.3069 51.3859 59.9369 50.7959 59.3369 50.5459ZM58.0669 48.0959C58.7169 48.0959 59.0169 48.4159 59.0169 49.0759C59.0169 49.7559 58.7069 50.1059 58.0969 50.1059H57.2969V48.0959H58.0669ZM58.1569 53.1959H57.2969V51.0559H58.1169C58.8269 51.0559 59.2769 51.4259 59.2769 52.1459C59.2769 52.8559 58.8969 53.1959 58.1569 53.1959Z"
          fill="white"/>
    <path d="M64.09 54.1459H65.14L63.38 47.1459H62.29L61.41 50.6459L60.53 54.1459H61.59L61.91 52.7359H63.76L64.09 54.1459ZM62.13 51.7959L62.56 49.9159C62.67 49.4559 62.77 48.7859 62.82 48.4159H62.85C62.9 48.7859 63.01 49.4559 63.11 49.9159L63.55 51.7959H62.13Z"
          fill="white"/>
    <path d="M68.9547 47.1459H65.0147V48.1059H66.4647V54.1459H67.4947V48.1059H68.9547V47.1459Z" fill="white"/>
    <path d="M69.7635 54.1459H71.6335C72.9935 54.1459 73.7335 53.4259 73.7335 52.0459C73.7335 50.7759 72.9935 49.9359 71.6335 49.9359H70.7735V47.1459H69.7635V54.1459ZM70.7735 53.2159V50.8959H71.5835C72.2735 50.8959 72.6935 51.2759 72.6935 52.0459C72.6935 52.8359 72.2735 53.2159 71.5835 53.2159H70.7735Z"
          fill="white"/>
    <path d="M54.45 54.1459H55.5L53.74 47.1459H52.65L50.89 54.1459H51.95L52.27 52.7359H54.12L54.45 54.1459ZM52.49 51.7959L52.92 49.9159C53.03 49.4559 53.13 48.7859 53.18 48.4159H53.21C53.26 48.7859 53.37 49.4559 53.47 49.9159L53.91 51.7959H52.49Z"
          fill="white"/>
    <path d="M246.747 47.1459H242.747V54.1459H243.757V48.1059H245.737V54.1459H246.747V47.1459ZM250.077 54.2759C251.418 54.2759 252.218 53.3859 252.218 51.9259V49.3659C252.218 47.9059 251.418 47.0159 250.077 47.0159C248.738 47.0159 247.938 47.9059 247.938 49.3659V51.9259C247.938 53.3859 248.738 54.2759 250.077 54.2759ZM250.077 53.2859C249.348 53.2859 248.978 52.8059 248.978 51.9259V49.3659C248.978 48.4859 249.348 48.0059 250.077 48.0059C250.798 48.0059 251.178 48.4859 251.178 49.3659V51.9259C251.178 52.8059 250.798 53.2859 250.077 53.2859ZM256.591 54.1459H257.751L255.461 50.1959L257.461 47.1459H256.281L254.881 49.3659L254.421 50.1859V47.1459H253.421V54.1459H254.421V51.7759L254.881 51.0859L256.591 54.1459ZM261.02 47.1459L260.01 50.5559L258.87 47.1459H257.8L259.56 52.0959L259.48 52.3559C259.27 53.0559 259.04 53.3359 258.5 53.3359H258.22V54.2459H258.47C259.53 54.2459 260.02 53.8359 260.38 52.6759L262.08 47.1459H261.02ZM266.786 47.1459H262.786V54.1459H263.796V48.1059H265.776V54.1459H266.786V47.1459ZM271.107 54.1459H272.157L270.397 47.1459H269.307L267.547 54.1459H268.607L268.927 52.7359H270.777L271.107 54.1459ZM269.147 51.7959L269.577 49.9159C269.687 49.4559 269.787 48.7859 269.837 48.4159H269.867C269.917 48.7859 270.027 49.4559 270.127 49.9159L270.567 51.7959H269.147ZM275.971 47.1459H272.031V48.1059H273.481V54.1459H274.511V48.1059H275.971V47.1459ZM276.78 54.1459H278.65C280.01 54.1459 280.75 53.4259 280.75 52.0459C280.75 50.7759 280.01 49.9359 278.65 49.9359H277.79V47.1459H276.78V54.1459ZM277.79 53.2159V50.8959H278.6C279.29 50.8959 279.71 51.2759 279.71 52.0459C279.71 52.8359 279.29 53.2159 278.6 53.2159H277.79Z"
          fill="white"/>
</svg>